<?xml version="1.0" encoding="UTF-8" standalone="no"?>
<!-- Created with Inkscape (http://www.inkscape.org/) -->

<svg
   width="16"
   height="16"
   viewBox="0 0 4.2333333 4.2333332"
   version="1.1"
   id="svg1"
   sodipodi:docname="icon_state.svg"
   inkscape:version="1.4 (86a8ad7, 2024-10-11)"
   xmlns:inkscape="http://www.inkscape.org/namespaces/inkscape"
   xmlns:sodipodi="http://sodipodi.sourceforge.net/DTD/sodipodi-0.dtd"
   xmlns="http://www.w3.org/2000/svg"
   xmlns:svg="http://www.w3.org/2000/svg">
  <sodipodi:namedview
     id="namedview1"
     pagecolor="#ffffff"
     bordercolor="#999999"
     borderopacity="1"
     inkscape:showpageshadow="2"
     inkscape:pageopacity="0"
     inkscape:pagecheckerboard="0"
     inkscape:deskcolor="#d1d1d1"
     inkscape:document-units="px"
     showborder="false"
     showguides="true"
     inkscape:lockguides="false"
     showgrid="true"
     inkscape:zoom="46.010774"
     inkscape:cx="6.5854141"
     inkscape:cy="8.2480681"
     inkscape:window-width="1920"
     inkscape:window-height="1009"
     inkscape:window-x="1912"
     inkscape:window-y="-8"
     inkscape:window-maximized="1"
     inkscape:current-layer="layer1">
    <inkscape:grid
       id="grid1"
       units="px"
       originx="0"
       originy="0"
       spacingx="0.26458333"
       spacingy="0.26458332"
       empcolor="#0099e5"
       empopacity="0.30196078"
       color="#0099e5"
       opacity="0.14901961"
       empspacing="4"
       enabled="true"
       visible="true" />
  </sodipodi:namedview>
  <defs
     id="defs1">
    <inkscape:path-effect
       effect="fillet_chamfer"
       id="path-effect12"
       is_visible="true"
       lpeversion="1"
       nodesatellites_param="F,0,0,1,0,0,0,1 @ F,0,0,1,0,0,0,1 @ F,0,0,1,0,0,0,1 @ F,0,0,1,0,0,0,1 @ F,0,0,1,0,0,0,1 @ F,0,0,1,0,0,0,1 @ F,0,0,1,0,0,0,1 @ F,0,0,1,0,0,0,1"
       radius="0"
       unit="px"
       method="auto"
       mode="F"
       chamfer_steps="1"
       flexible="false"
       use_knot_distance="true"
       apply_no_radius="true"
       apply_with_radius="true"
       only_selected="false"
       hide_knots="false" />
    <inkscape:path-effect
       effect="fillet_chamfer"
       id="path-effect10"
       is_visible="true"
       lpeversion="1"
       nodesatellites_param="F,0,0,1,0,0,0,1 @ F,0,0,1,0,0,0,1 @ F,0,0,1,0,0,0,1 @ F,0,0,1,0,0,0,1 @ F,0,0,1,0,0,0,1 @ F,0,0,1,0,0,0,1 @ F,0,0,1,0,0,0,1 @ F,0,0,1,0,0,0,1"
       radius="0"
       unit="px"
       method="auto"
       mode="F"
       chamfer_steps="1"
       flexible="false"
       use_knot_distance="true"
       apply_no_radius="true"
       apply_with_radius="true"
       only_selected="false"
       hide_knots="false" />
    <inkscape:path-effect
       effect="fillet_chamfer"
       id="path-effect8"
       is_visible="true"
       lpeversion="1"
       nodesatellites_param="F,0,0,1,0,0,0,1 @ F,0,0,1,0,0,0,1 @ F,0,0,1,0,0,0,1 @ F,0,0,1,0,0,0,1 @ F,0,0,1,0,0,0,1 @ F,0,0,1,0,0,0,1 @ F,0,0,1,0,0,0,1 @ F,0,0,1,0,0,0,1"
       radius="0"
       unit="px"
       method="auto"
       mode="F"
       chamfer_steps="1"
       flexible="false"
       use_knot_distance="true"
       apply_no_radius="true"
       apply_with_radius="true"
       only_selected="false"
       hide_knots="false" />
    <inkscape:path-effect
       effect="fillet_chamfer"
       id="path-effect6"
       is_visible="true"
       lpeversion="1"
       nodesatellites_param="F,0,0,1,0,0,0,1 @ F,0,0,1,0,0,0,1 @ F,0,0,1,0,0,0,1 @ F,0,0,1,0,0,0,1 @ F,0,0,1,0,0,0,1 @ F,0,0,1,0,0,0,1 @ F,0,0,1,0,0,0,1 @ F,0,0,1,0,0,0,1"
       radius="0"
       unit="px"
       method="auto"
       mode="F"
       chamfer_steps="1"
       flexible="false"
       use_knot_distance="true"
       apply_no_radius="true"
       apply_with_radius="true"
       only_selected="false"
       hide_knots="false" />
    <inkscape:path-effect
       effect="fillet_chamfer"
       id="path-effect4"
       is_visible="true"
       lpeversion="1"
       nodesatellites_param="F,0,0,1,0,0,0,1 @ F,0,0,1,0,0,0,1 @ F,0,0,1,0,0,0,1 @ F,0,0,1,0,0,0,1 @ F,0,0,1,0,0,0,1 @ F,0,0,1,0,0,0,1 @ F,0,0,1,0,0,0,1 @ F,0,0,1,0,0,0,1"
       radius="0"
       unit="px"
       method="auto"
       mode="F"
       chamfer_steps="1"
       flexible="false"
       use_knot_distance="true"
       apply_no_radius="true"
       apply_with_radius="true"
       only_selected="false"
       hide_knots="false" />
    <inkscape:path-effect
       effect="fillet_chamfer"
       id="path-effect3"
       is_visible="true"
       lpeversion="1"
       nodesatellites_param="F,0,0,1,0,0.10179561,0,1 @ F,0,0,1,0,0,0,1 @ F,0,0,1,0,0,0,1 @ F,0,0,1,0,0,0,1"
       radius="0"
       unit="px"
       method="auto"
       mode="F"
       chamfer_steps="1"
       flexible="false"
       use_knot_distance="true"
       apply_no_radius="true"
       apply_with_radius="true"
       only_selected="false"
       hide_knots="false" />
    <inkscape:path-effect
       effect="fillet_chamfer"
       id="path-effect2"
       is_visible="true"
       lpeversion="1"
       nodesatellites_param="F,0,0,1,0,0,0,1 @ F,0,0,1,0,0,0,1 @ F,0,0,1,0,0,0,1 @ F,0,0,1,0,0,0,1"
       radius="0"
       unit="px"
       method="auto"
       mode="F"
       chamfer_steps="1"
       flexible="false"
       use_knot_distance="true"
       apply_no_radius="true"
       apply_with_radius="true"
       only_selected="false"
       hide_knots="false" />
  </defs>
  <g
     inkscape:label="Capa 1"
     inkscape:groupmode="layer"
     id="layer1">
    <path
       id="path2"
       style="fill:#ffbe56;stroke-width:0.309039;stroke-dasharray:none;fill-opacity:1"
       d="m 1.9585366,0.26458321 c -0.058937,0 -0.1064534,0.047517 -0.1064534,0.10645345 v 0.1824178 A 1.5875,1.5875 0 0 0 1.1994099,0.82527249 L 1.0691853,0.69556464 c -0.041681,-0.0416676 -0.10871048,-0.0416816 -0.15037842,0 L 0.69504794,0.91932356 c -0.0416676,0.0416815 -0.0416816,0.10871054 0,0.15037844 l 0.1302246,0.1302246 A 1.5875,1.5875 0 0 0 0.55345452,1.8520832 H 0.37103673 c -0.0589366,0 -0.10645344,0.047516 -0.10645344,0.1064534 v 0.3162598 c 0,0.058936 0.0475165,0.1064535 0.10645344,0.1064535 H 0.55345452 A 1.5875,1.5875 0 0 0 0.82527254,3.0339232 L 0.6955647,3.1641478 c -0.0416676,0.041681 -0.0416816,0.1087105 0,0.1503784 l 0.22375896,0.2237589 c 0.0416815,0.041668 0.10871044,0.041682 0.15037834,0 L 1.1999266,3.4080605 a 1.5875,1.5875 0 0 0 0.6521566,0.2718181 v 0.1824178 c 0,0.058937 0.047516,0.1064534 0.1064534,0.1064534 h 0.3162598 c 0.058937,0 0.1064535,-0.047516 0.1064535,-0.1064534 V 3.6798786 A 1.5875,1.5875 0 0 0 3.0339231,3.4080605 l 0.1302246,0.1297079 c 0.041682,0.041667 0.1087105,0.041682 0.1503785,0 L 3.538285,3.3140094 c 0.041668,-0.041681 0.041681,-0.1087108 0,-0.1503784 L 3.4080604,3.0334064 A 1.5875,1.5875 0 0 0 3.6798786,2.3812499 h 0.1824177 c 0.058937,0 0.1064534,-0.047516 0.1064534,-0.1064535 V 1.9585366 c 0,-0.058937 -0.047517,-0.1064534 -0.1064534,-0.1064534 H 3.6814288 A 1.5875,1.5875 0 0 0 3.4101275,1.196826 L 3.5377683,1.0691853 c 0.041667,-0.041681 0.041682,-0.10871057 0,-0.15037842 l -0.223759,-0.223759 c -0.041681,-0.0416676 -0.1087108,-0.0416811 -0.1503784,0 L 3.0359901,0.82320543 A 1.5875,1.5875 0 0 0 2.3812499,0.55190417 V 0.37103666 c 0,-0.0589365 -0.047516,-0.10645345 -0.1064535,-0.10645345 z M 2.1166665,1.5874999 A 0.52916656,0.5291667 0 0 1 2.6458331,2.1166665 0.52916656,0.5291667 0 0 1 2.1166665,2.6458332 0.52916656,0.5291667 0 0 1 1.5874999,2.1166665 0.52916656,0.5291667 0 0 1 2.1166665,1.5874999 Z" />
  </g>
</svg>
