<?xml version="1.0" encoding="UTF-8" standalone="no"?>
<!-- Created with Inkscape (http://www.inkscape.org/) -->

<svg
   width="16"
   height="16"
   viewBox="0 0 4.2333333 4.2333332"
   version="1.1"
   id="svg1"
   sodipodi:docname="icon.svg"
   inkscape:version="1.4 (86a8ad7, 2024-10-11)"
   xmlns:inkscape="http://www.inkscape.org/namespaces/inkscape"
   xmlns:sodipodi="http://sodipodi.sourceforge.net/DTD/sodipodi-0.dtd"
   xmlns="http://www.w3.org/2000/svg"
   xmlns:svg="http://www.w3.org/2000/svg">
  <sodipodi:namedview
     id="namedview1"
     pagecolor="#ffffff"
     bordercolor="#999999"
     borderopacity="1"
     inkscape:showpageshadow="2"
     inkscape:pageopacity="0"
     inkscape:pagecheckerboard="0"
     inkscape:deskcolor="#d1d1d1"
     inkscape:document-units="px"
     showborder="false"
     showguides="true"
     inkscape:lockguides="false"
     showgrid="true"
     inkscape:zoom="46.010774"
     inkscape:cx="6.5854141"
     inkscape:cy="8.2480681"
     inkscape:window-width="1920"
     inkscape:window-height="1009"
     inkscape:window-x="1912"
     inkscape:window-y="-8"
     inkscape:window-maximized="1"
     inkscape:current-layer="layer1">
    <inkscape:grid
       id="grid1"
       units="px"
       originx="0"
       originy="0"
       spacingx="0.26458333"
       spacingy="0.26458332"
       empcolor="#0099e5"
       empopacity="0.30196078"
       color="#0099e5"
       opacity="0.14901961"
       empspacing="4"
       enabled="true"
       visible="true" />
  </sodipodi:namedview>
  <defs
     id="defs1">
    <inkscape:path-effect
       effect="fillet_chamfer"
       id="path-effect12"
       is_visible="true"
       lpeversion="1"
       nodesatellites_param="F,0,0,1,0,0,0,1 @ F,0,0,1,0,0,0,1 @ F,0,0,1,0,0,0,1 @ F,0,0,1,0,0,0,1 @ F,0,0,1,0,0,0,1 @ F,0,0,1,0,0,0,1 @ F,0,0,1,0,0,0,1 @ F,0,0,1,0,0,0,1"
       radius="0"
       unit="px"
       method="auto"
       mode="F"
       chamfer_steps="1"
       flexible="false"
       use_knot_distance="true"
       apply_no_radius="true"
       apply_with_radius="true"
       only_selected="false"
       hide_knots="false" />
    <inkscape:path-effect
       effect="fillet_chamfer"
       id="path-effect10"
       is_visible="true"
       lpeversion="1"
       nodesatellites_param="F,0,0,1,0,0,0,1 @ F,0,0,1,0,0,0,1 @ F,0,0,1,0,0,0,1 @ F,0,0,1,0,0,0,1 @ F,0,0,1,0,0,0,1 @ F,0,0,1,0,0,0,1 @ F,0,0,1,0,0,0,1 @ F,0,0,1,0,0,0,1"
       radius="0"
       unit="px"
       method="auto"
       mode="F"
       chamfer_steps="1"
       flexible="false"
       use_knot_distance="true"
       apply_no_radius="true"
       apply_with_radius="true"
       only_selected="false"
       hide_knots="false" />
    <inkscape:path-effect
       effect="fillet_chamfer"
       id="path-effect8"
       is_visible="true"
       lpeversion="1"
       nodesatellites_param="F,0,0,1,0,0,0,1 @ F,0,0,1,0,0,0,1 @ F,0,0,1,0,0,0,1 @ F,0,0,1,0,0,0,1 @ F,0,0,1,0,0,0,1 @ F,0,0,1,0,0,0,1 @ F,0,0,1,0,0,0,1 @ F,0,0,1,0,0,0,1"
       radius="0"
       unit="px"
       method="auto"
       mode="F"
       chamfer_steps="1"
       flexible="false"
       use_knot_distance="true"
       apply_no_radius="true"
       apply_with_radius="true"
       only_selected="false"
       hide_knots="false" />
    <inkscape:path-effect
       effect="fillet_chamfer"
       id="path-effect6"
       is_visible="true"
       lpeversion="1"
       nodesatellites_param="F,0,0,1,0,0,0,1 @ F,0,0,1,0,0,0,1 @ F,0,0,1,0,0,0,1 @ F,0,0,1,0,0,0,1 @ F,0,0,1,0,0,0,1 @ F,0,0,1,0,0,0,1 @ F,0,0,1,0,0,0,1 @ F,0,0,1,0,0,0,1"
       radius="0"
       unit="px"
       method="auto"
       mode="F"
       chamfer_steps="1"
       flexible="false"
       use_knot_distance="true"
       apply_no_radius="true"
       apply_with_radius="true"
       only_selected="false"
       hide_knots="false" />
    <inkscape:path-effect
       effect="fillet_chamfer"
       id="path-effect4"
       is_visible="true"
       lpeversion="1"
       nodesatellites_param="F,0,0,1,0,0,0,1 @ F,0,0,1,0,0,0,1 @ F,0,0,1,0,0,0,1 @ F,0,0,1,0,0,0,1 @ F,0,0,1,0,0,0,1 @ F,0,0,1,0,0,0,1 @ F,0,0,1,0,0,0,1 @ F,0,0,1,0,0,0,1"
       radius="0"
       unit="px"
       method="auto"
       mode="F"
       chamfer_steps="1"
       flexible="false"
       use_knot_distance="true"
       apply_no_radius="true"
       apply_with_radius="true"
       only_selected="false"
       hide_knots="false" />
    <inkscape:path-effect
       effect="fillet_chamfer"
       id="path-effect3"
       is_visible="true"
       lpeversion="1"
       nodesatellites_param="F,0,0,1,0,0.10179561,0,1 @ F,0,0,1,0,0,0,1 @ F,0,0,1,0,0,0,1 @ F,0,0,1,0,0,0,1"
       radius="0"
       unit="px"
       method="auto"
       mode="F"
       chamfer_steps="1"
       flexible="false"
       use_knot_distance="true"
       apply_no_radius="true"
       apply_with_radius="true"
       only_selected="false"
       hide_knots="false" />
    <inkscape:path-effect
       effect="fillet_chamfer"
       id="path-effect2"
       is_visible="true"
       lpeversion="1"
       nodesatellites_param="F,0,0,1,0,0,0,1 @ F,0,0,1,0,0,0,1 @ F,0,0,1,0,0,0,1 @ F,0,0,1,0,0,0,1"
       radius="0"
       unit="px"
       method="auto"
       mode="F"
       chamfer_steps="1"
       flexible="false"
       use_knot_distance="true"
       apply_no_radius="true"
       apply_with_radius="true"
       only_selected="false"
       hide_knots="false" />
  </defs>
  <g
     inkscape:label="Capa 1"
     inkscape:groupmode="layer"
     id="layer1">
    <path
       id="rect12"
       style="fill:#ffbe56;fill-opacity:1;stroke-width:0.264999;stroke-dasharray:none"
       d="M 0.62373453 0 C 0.27807986 0 0 0.27807986 0 0.62373453 L 0 3.6095987 C 0 3.9552534 0.27807986 4.2333332 0.62373453 4.2333332 L 3.6095987 4.2333332 C 3.9552534 4.2333332 4.2333332 3.9552534 4.2333332 3.6095987 L 4.2333332 0.62373453 C 4.2333332 0.27807986 3.9552534 0 3.6095987 0 L 0.62373453 0 z M 1.9585367 0.26458333 L 2.2747965 0.26458333 C 2.333734 0.26458333 2.38125 0.31210028 2.38125 0.37103678 L 2.38125 0.55190429 A 1.5875 1.5875 0 0 1 3.0359903 0.82320555 L 3.1636311 0.695048 C 3.2052987 0.6533669 3.2723285 0.6533804 3.3140095 0.695048 L 3.5377685 0.91880695 C 3.5794505 0.9604748 3.5794355 1.0275044 3.5377685 1.0691854 L 3.4101277 1.1968261 A 1.5875 1.5875 0 0 1 3.681429 1.8520833 L 3.8622965 1.8520833 C 3.9212329 1.8520833 3.9687499 1.8995997 3.9687499 1.9585367 L 3.9687499 2.2747965 C 3.9687499 2.333734 3.9212335 2.38125 3.8622965 2.38125 L 3.6798787 2.38125 A 1.5875 1.5875 0 0 1 3.4080606 3.0334065 L 3.5382852 3.1636311 C 3.5799662 3.2052987 3.5799532 3.2723285 3.5382852 3.3140095 L 3.3145263 3.5377685 C 3.2728583 3.5794505 3.2058299 3.5794355 3.1641479 3.5377685 L 3.0339233 3.4080606 A 1.5875 1.5875 0 0 1 2.38125 3.6798787 L 2.38125 3.8622965 C 2.38125 3.9212339 2.3337335 3.9687499 2.2747965 3.9687499 L 1.9585367 3.9687499 C 1.8995993 3.9687499 1.8520833 3.9212335 1.8520833 3.8622965 L 1.8520833 3.6798787 A 1.5875 1.5875 0 0 1 1.1999267 3.4080606 L 1.0697021 3.5382852 C 1.0280342 3.5799672 0.96100521 3.5799532 0.91932371 3.5382852 L 0.69556476 3.3145263 C 0.65388316 3.2728584 0.65389716 3.2058289 0.69556476 3.1641479 L 0.82527261 3.0339233 A 1.5875 1.5875 0 0 1 0.55345458 2.38125 L 0.37103678 2.38125 C 0.31209984 2.38125 0.26458333 2.3337325 0.26458333 2.2747965 L 0.26458333 1.9585367 C 0.26458333 1.8995993 0.31210018 1.8520833 0.37103678 1.8520833 L 0.55345458 1.8520833 A 1.5875 1.5875 0 0 1 0.82527261 1.1999267 L 0.695048 1.0697021 C 0.6533664 1.0280342 0.6533804 0.96100521 0.695048 0.91932371 L 0.91880695 0.69556476 C 0.96047489 0.65388316 1.0275044 0.65389716 1.0691854 0.69556476 L 1.19941 0.82527261 A 1.5875 1.5875 0 0 1 1.8520833 0.55345458 L 1.8520833 0.37103678 C 1.8520833 0.31210033 1.8995997 0.26458333 1.9585367 0.26458333 z M 2.1166666 1.5875 A 0.52916656 0.5291667 0 0 0 1.5875 2.1166666 A 0.52916656 0.5291667 0 0 0 2.1166666 2.6458333 A 0.52916656 0.5291667 0 0 0 2.6458333 2.1166666 A 0.52916656 0.5291667 0 0 0 2.1166666 1.5875 z " />
  </g>
</svg>
