<?xml version="1.0" encoding="UTF-8" standalone="no"?>
<!-- Created with Inkscape (http://www.inkscape.org/) -->

<svg
   width="16"
   height="16"
   viewBox="0 0 4.2333332 4.2333333"
   version="1.1"
   id="svg1"
   inkscape:version="1.4 (86a8ad7, 2024-10-11)"
   sodipodi:docname="icon.svg"
   xmlns:inkscape="http://www.inkscape.org/namespaces/inkscape"
   xmlns:sodipodi="http://sodipodi.sourceforge.net/DTD/sodipodi-0.dtd"
   xmlns="http://www.w3.org/2000/svg"
   xmlns:svg="http://www.w3.org/2000/svg">
  <sodipodi:namedview
     id="namedview1"
     pagecolor="#ffffff"
     bordercolor="#999999"
     borderopacity="1"
     inkscape:showpageshadow="2"
     inkscape:pageopacity="0"
     inkscape:pagecheckerboard="0"
     inkscape:deskcolor="#d1d1d1"
     inkscape:document-units="mm"
     showgrid="true"
     inkscape:zoom="46.010774"
     inkscape:cx="7.4113076"
     inkscape:cy="8.0089937"
     inkscape:window-width="1920"
     inkscape:window-height="1009"
     inkscape:window-x="1912"
     inkscape:window-y="-8"
     inkscape:window-maximized="1"
     inkscape:current-layer="layer1">
    <inkscape:grid
       id="grid4"
       units="px"
       originx="0"
       originy="0"
       spacingx="0.26458332"
       spacingy="0.26458332"
       empcolor="#0099e5"
       empopacity="0.30196078"
       color="#0099e5"
       opacity="0.14901961"
       empspacing="4"
       enabled="true"
       visible="true" />
  </sodipodi:namedview>
  <defs
     id="defs1" />
  <g
     inkscape:label="Capa 1"
     inkscape:groupmode="layer"
     id="layer1">
    <path
       id="rect12"
       style="fill:#ff8080;fill-opacity:1;stroke-width:0.264999"
       d="M 0.52916667 0 C 0.23600835 0 0 0.23600835 0 0.52916667 L 0 3.7041667 C 0 3.997325 0.23600835 4.2333333 0.52916667 4.2333333 L 3.7041667 4.2333333 C 3.997325 4.2333333 4.2333333 3.997325 4.2333333 3.7041667 L 4.2333333 0.52916667 C 4.2333333 0.23600835 3.997325 0 3.7041667 0 L 0.52916667 0 z M 1.9585368 0.26458333 L 2.2747965 0.26458333 C 2.333734 0.26458333 2.38125 0.31210028 2.38125 0.37103678 L 2.38125 0.5519043 A 1.5875 1.5875 0 0 1 2.644283 0.62270101 L 1.3962972 2.056722 L 1.0392131 1.7011882 A 0.11527969 0.11527969 0 0 0 0.874882 1.7011882 L 0.50177816 2.076359 A 0.11527969 0.11527969 0 0 0 0.50177816 2.2401733 L 0.98236898 2.7186971 L 0.76636149 2.9362549 A 1.5875 1.5875 0 0 1 0.55345459 2.38125 L 0.37103678 2.38125 C 0.31209938 2.38125 0.26458333 2.3337325 0.26458333 2.2747965 L 0.26458333 1.9585368 C 0.26458333 1.8995994 0.31209978 1.8520833 0.37103678 1.8520833 L 0.55345459 1.8520833 A 1.5875 1.5875 0 0 1 0.82527262 1.1999268 L 0.69504801 1.0697021 C 0.65336601 1.0280342 0.65338001 0.96100573 0.69504801 0.91932373 L 0.91880697 0.69556478 C 0.96047487 0.65388278 1.0275044 0.65389678 1.0691854 0.69556478 L 1.19941 0.82527262 A 1.5875 1.5875 0 0 1 1.8520833 0.55345459 L 1.8520833 0.37103678 C 1.8520833 0.31210028 1.8995998 0.26458333 1.9585368 0.26458333 z M 3.0406413 0.34364827 L 3.8380086 0.39119059 L 3.8886515 1.1880412 L 2.0112467 2.8339355 L 2.4566976 3.2773193 L 2.083077 3.6524902 L 1.5208374 3.0923177 L 1.0381795 3.5770426 L 1.1684041 3.7067505 L 0.98185221 3.8943359 L 0.3462321 3.2612996 L 0.53278402 3.0737142 L 0.66300863 3.203422 L 1.1461833 2.7186971 L 0.58342692 2.1585246 L 0.95704753 1.7838704 L 1.4019816 2.2272542 L 3.0406413 0.34364827 z M 3.3873901 0.84335937 L 1.6133382 2.4370605 L 1.8004069 2.6241292 L 3.3873901 0.84335937 z M 3.609082 1.5854329 A 1.5875 1.5875 0 0 1 3.681429 1.8520833 L 3.8622965 1.8520833 C 3.9212329 1.8520833 3.96875 1.8995998 3.96875 1.9585368 L 3.96875 2.2747965 C 3.96875 2.333734 3.9212335 2.38125 3.8622965 2.38125 L 3.6798787 2.38125 A 1.5875 1.5875 0 0 1 3.4080607 3.0334066 L 3.5382853 3.1636312 C 3.5799663 3.2052988 3.5799533 3.2723286 3.5382853 3.3140096 L 3.3145264 3.5377686 C 3.2728584 3.5794506 3.2058299 3.5794356 3.1641479 3.5377686 L 3.0339233 3.4080607 A 1.5875 1.5875 0 0 1 2.38125 3.6798787 L 2.38125 3.8622965 C 2.38125 3.9212339 2.3337335 3.96875 2.2747965 3.96875 L 1.9585368 3.96875 C 1.8995994 3.96875 1.8520833 3.9212335 1.8520833 3.8622965 L 1.8520833 3.6798787 A 1.5875 1.5875 0 0 1 1.3058634 3.4721395 L 1.5213542 3.2556152 L 2.001945 3.734139 A 0.11527969 0.11527969 0 0 0 2.1657593 3.734139 L 2.5388631 3.3594849 A 0.11527969 0.11527969 0 0 0 2.5388631 3.1951538 L 2.181779 2.8380697 L 3.609082 1.5854329 z " />
  </g>
</svg>
